<?xml version="1.0" encoding="utf-8"?><!-- Uploaded to: SVG Repo, www.svgrepo.com, Generator: SVG Repo Mixer Tools -->
<svg width="800px" height="800px" viewBox="0 0 32 32" id="officebuilding_Dark" data-name="officebuilding/Dark" xmlns="http://www.w3.org/2000/svg">
  <path id="Path" d="M0,0H32V26H30V12H28V10H26V8H24V6H22V8H20v2H16v2H10V26H8V8H6V2H4V8H2v4H0Z" fill="#1a1a1a"/>
  <path id="Path-2" data-name="Path" d="M4,0H6V6H8V24h2V10h6V8h4V6h2V4h2V6h2V8h2v2h2V24h2v4H0V10H2V6H4Z" transform="translate(0 2)" fill="#ffffff"/>
  <path id="Path-3" data-name="Path" d="M0,0H2V2H0Z" transform="translate(22 10)" fill="#1a1a1a"/>
  <path id="Path-4" data-name="Path" d="M0,0H2V2H0Z" transform="translate(4 14)" fill="#1a1a1a"/>
  <path id="Path-5" data-name="Path" d="M0,0H2V2H0Z" transform="translate(12 14)" fill="#1a1a1a"/>
  <path id="Path-6" data-name="Path" d="M0,0H2V2H0Z" transform="translate(16 14)" fill="#1a1a1a"/>
  <path id="Path-7" data-name="Path" d="M0,0H4V2H0Z" transform="translate(20 14)" fill="#1a1a1a"/>
  <path id="Path-8" data-name="Path" d="M0,0H2V2H0Z" transform="translate(26 14)" fill="#1a1a1a"/>
  <path id="Path-9" data-name="Path" d="M0,0H2V2H0Z" transform="translate(4 18)" fill="#1a1a1a"/>
  <path id="Path-10" data-name="Path" d="M0,0H2V2H0Z" transform="translate(12 18)" fill="#1a1a1a"/>
  <path id="Path-11" data-name="Path" d="M0,0H2V2H0Z" transform="translate(16 18)" fill="#1a1a1a"/>
  <path id="Path-12" data-name="Path" d="M0,0H4V2H0Z" transform="translate(20 18)" fill="#1a1a1a"/>
  <path id="Path-13" data-name="Path" d="M0,0H2V2H0Z" transform="translate(26 18)" fill="#1a1a1a"/>
  <path id="Path-14" data-name="Path" d="M0,0H2V2H0Z" transform="translate(4 22)" fill="#1a1a1a"/>
  <path id="Path-15" data-name="Path" d="M0,0H2V2H0Z" transform="translate(12 22)" fill="#1a1a1a"/>
  <path id="Path-16" data-name="Path" d="M0,0H2V2H0Z" transform="translate(16 22)" fill="#1a1a1a"/>
  <path id="Path-17" data-name="Path" d="M0,0H4V2H0Z" transform="translate(20 22)" fill="#1a1a1a"/>
  <path id="Path-18" data-name="Path" d="M0,0H2V2H0Z" transform="translate(26 22)" fill="#1a1a1a"/>
  <path id="Path-19" data-name="Path" d="M0,0H2V2H0Z" transform="translate(22 26)" fill="#1a1a1a"/>
  <path id="Path-20" data-name="Path" d="M0,0H32V2H0Z" transform="translate(0 30)" fill="#1a1a1a"/>
</svg>